<svg class="" width="165px" height="28px" viewBox="0 0 200 34" version="1.1" xmlns="http://www.w3.org/2000/svg"><g stroke="none" stroke-width="1" fill="none" fill-rule="evenodd"><path d="M86.3586957,10 C83.8043478,10 81.6847826,11.0869565 80.5434783,12.9891304 C79.6195652,11.0326087 77.8804348,10 75.5978261,10 C73.3695652,10 71.4130435,10.923913 70.4347826,12.5 L70.1086957,10.326087 L67.9347826,10.326087 L67.9347826,25.8152174 L70.5434783,25.8152174 L70.5434783,17.3369565 C70.5434783,14.3478261 72.2826087,12.5 75.1086957,12.5 C77.4456522,12.5 78.75,14.076087 78.75,16.9021739 L78.75,25.7065217 L81.3586957,25.7065217 L81.3586957,17.3369565 C81.3586957,14.3478261 83.0978261,12.5 85.923913,12.5 C88.2608696,12.5 89.5652174,14.076087 89.5652174,16.9021739 L89.5652174,25.7065217 L92.173913,25.7065217 L92.173913,16.6304348 C92.173913,12.6086957 89.8913043,10 86.3586957,10 Z" fill="#2B223D"></path><path d="M102.608696,10 C98.8586957,10 96.6304348,11.6847826 96.576087,11.7934783 L96.4673913,11.8478261 L97.8804348,13.9130435 L97.9891304,13.8043478 C97.9891304,13.8043478 99.8369565,12.3913043 102.554348,12.3913043 C105.054348,12.3913043 106.467391,13.6956522 106.467391,15.9782609 L106.467391,17.0652174 C105.48913,16.6847826 103.913043,16.25 101.684783,16.25 C97.7717391,16.25 95.5434783,18.0434783 95.5434783,21.0869565 C95.5434783,24.1847826 97.6630435,25.9782609 101.358696,25.9782609 C103.858696,25.9782609 105.652174,25.2173913 106.684783,23.6956522 L107.065217,25.6521739 L109.076087,25.6521739 L109.076087,15.7608696 C109.130435,12.3369565 106.521739,10 102.608696,10 Z M106.467391,20.1630435 C106.467391,22.173913 104.565217,23.6956522 102.01087,23.6956522 C100.326087,23.6956522 98.2608696,23.2608696 98.2608696,21.1413043 C98.2608696,19.0217391 100.434783,18.5869565 102.282609,18.5869565 C104.347826,18.5869565 105.923913,19.1847826 106.467391,19.4021739 L106.467391,20.1630435 Z" fill="#2B223D" fill-rule="nonzero"></path><polygon fill="#2B223D" points="127.391304 10.326087 124.021739 10.326087 119.836957 16.0326087 115.48913 10.326087 112.173913 10.326087 118.097826 17.9347826 111.847826 25.8152174 115.217391 25.8152174 119.836957 19.8369565 124.402174 25.8152174 127.771739 25.8152174 121.467391 17.9347826"></polygon><rect fill="#2B223D" x="131.25" y="10.326087" width="2.60869565" height="15.4891304"></rect><path d="M132.554348,3.69565217 C131.467391,3.69565217 130.652174,4.45652174 130.652174,5.48913043 C130.652174,6.57608696 131.467391,7.33695652 132.554348,7.33695652 C133.586957,7.33695652 134.402174,6.52173913 134.402174,5.48913043 C134.402174,4.45652174 133.641304,3.69565217 132.554348,3.69565217 Z" fill="#2B223D"></path><path d="M146.358696,10 C144.021739,10 142.119565,10.8152174 141.032609,12.2282609 L141.032609,2.66304348 L138.423913,2.66304348 L138.423913,25.8152174 L141.032609,25.8152174 L141.032609,17.3369565 C141.032609,14.5108696 143.097826,12.4456522 145.978261,12.4456522 C148.586957,12.4456522 150,14.0217391 150,16.9565217 L150,25.7608696 L152.608696,25.7608696 L152.608696,16.6304348 C152.608696,12.5543478 150.217391,10 146.358696,10 Z" fill="#2B223D"></path><path d="M163.804348,10.0543478 C159.021739,10.0543478 155.543478,13.423913 155.543478,18.0978261 C155.543478,22.7717391 159.021739,26.1413043 163.804348,26.1413043 C168.478261,26.1413043 172.01087,22.6630435 172.01087,18.0978261 C172.065217,13.3152174 168.641304,10.0543478 163.804348,10.0543478 Z M163.804348,23.6413043 C160.597826,23.6413043 158.26087,21.3043478 158.26087,18.0978261 C158.26087,14.8369565 160.597826,12.5 163.804348,12.5 C167.119565,12.5 169.347826,14.7826087 169.347826,18.0978261 C169.347826,21.3043478 167.01087,23.6413043 163.804348,23.6413043 Z" fill="#2B223D" fill-rule="nonzero"></path><path d="M181.576087,17.0108696 L179.565217,16.576087 C177.880435,16.1413043 177.065217,15.7065217 177.065217,14.4021739 C177.065217,13.1521739 178.043478,12.4456522 179.728261,12.4456522 C181.956522,12.4456522 182.445652,13.8586957 182.5,13.9130435 L182.554348,14.0217391 L185,13.1521739 L184.945652,13.0434783 C184.945652,12.9891304 183.967391,10 179.782609,10 C176.576087,10 174.456522,11.7391304 174.456522,14.4565217 C174.456522,16.7391304 175.76087,18.2065217 178.315217,18.8586957 L180.271739,19.3478261 C181.956522,19.7282609 182.717391,20.1630435 182.717391,21.5217391 C182.717391,22.8804348 181.684783,23.6413043 179.836957,23.6413043 C177.173913,23.6413043 176.73913,21.6847826 176.73913,21.6304348 L176.684783,21.4673913 L174.184783,22.2282609 L174.23913,22.3369565 C174.23913,22.3913043 175.217391,26.0869565 179.836957,26.0869565 C183.206522,26.0869565 185.434783,24.2391304 185.434783,21.4130435 C185.380435,19.1304348 184.076087,17.6086957 181.576087,17.0108696 Z" fill="#2B223D"></path><path d="M198.641304,22.7173913 L198.478261,22.826087 C198.478261,22.826087 197.391304,23.6413043 195.76087,23.6413043 C195.706522,23.6413043 195.706522,23.6413043 195.652174,23.6413043 C193.532609,23.5869565 192.771739,22.7717391 192.771739,20.3804348 L192.771739,12.7173913 L198.695652,12.7173913 L198.695652,10.326087 L192.771739,10.326087 L192.771739,5.97826087 L190.652174,5.97826087 L190.652174,6.08695652 C190.597826,9.29347826 189.673913,10.5978261 187.282609,10.6521739 L187.173913,10.6521739 L187.173913,12.7173913 L190.108696,12.7173913 L190.108696,20.4891304 C190.108696,24.2934783 191.847826,26.0869565 195.434783,26.0869565 C197.880435,26.0869565 199.347826,25.1630435 199.402174,25.1630435 L199.51087,25.1086957 L198.641304,22.7173913 Z" fill="#2B223D"></path><path class="svg-logo" d="M55.2173913,19.5652174 L45.1086957,2.55434783 C44.4021739,1.41304348 43.3152174,0.652173913 42.0652174,0.489130435 C40.8152174,0.326086957 39.5652174,0.815217391 38.6413043,1.73913043 L21.0326087,19.6195652 L19.2391304,21.4130435 C19.2391304,21.4130435 19.2391304,21.4130435 19.2391304,21.4130435 L13.6413043,27.2282609 C12.7717391,28.2065217 11.5217391,28.8043478 10.1086957,28.8043478 C7.5,28.8043478 5.38043478,26.6847826 5.38043478,24.076087 C5.38043478,23.1521739 5.65217391,22.2826087 6.08695652,21.576087 L10.2717391,14.5108696 C10.2717391,14.5108696 10.2717391,14.5108696 10.2717391,14.5108696 L10.923913,13.423913 L15.5434783,5.48913043 L22.4456522,13.0978261 L25.8695652,9.61956522 L18.423913,1.41304348 C17.5,0.434782609 16.25,-0.108695652 15,0.0543478261 C13.75,0.163043478 12.6086957,0.923913043 11.9565217,2.11956522 L6.41304348,11.4673913 L1.90217391,19.1304348 C1.14130435,20.3804348 0.652173913,21.8478261 0.543478261,23.3695652 C0.543478261,23.5869565 0.489130435,23.8043478 0.489130435,24.0217391 C0.489130435,24.076087 0.489130435,24.076087 0.489130435,24.1304348 C0.489130435,24.1304348 0.489130435,24.1304348 0.489130435,24.1304348 C0.489130435,24.1304348 0.489130435,24.1304348 0.489130435,24.1847826 C0.489130435,29.4565217 4.7826087,33.75 10.0543478,33.75 C11.0326087,33.75 11.9565217,33.5869565 12.8804348,33.3152174 C12.9347826,33.3152174 13.0434783,33.2608696 13.0978261,33.2608696 C13.2608696,33.2065217 13.423913,33.1521739 13.6413043,33.0978261 C13.8586957,33.0434783 14.0217391,32.9347826 14.2391304,32.826087 C14.2934783,32.826087 14.3478261,32.7717391 14.3478261,32.7717391 C14.6195652,32.6630435 14.8369565,32.5 15.0543478,32.3913043 C15.0543478,32.3913043 15.0543478,32.3913043 15.0543478,32.3913043 C15.2717391,32.2282609 15.5434783,32.0652174 15.7608696,31.9021739 C15.8152174,31.8478261 15.8695652,31.8478261 15.8695652,31.7934783 C16.0326087,31.6847826 16.1956522,31.576087 16.3586957,31.4130435 C16.4130435,31.3586957 16.6847826,31.0869565 16.6847826,31.0869565 C16.7934783,30.9782609 16.9021739,30.8695652 17.0108696,30.7608696 L23.5869565,24.076087 L41.4130435,5.97826087 L50.923913,22.0652174 C51.3043478,22.7173913 51.4673913,23.4782609 51.4673913,24.2391304 C51.4673913,26.7934783 49.4021739,28.9130435 46.7934783,28.9130435 C45.3804348,28.9130435 44.2934783,28.2608696 43.5869565,27.6630435 L34.076087,18.423913 L30.6521739,21.9021739 L40.2173913,31.1956522 L40.326087,31.3043478 C42.173913,32.9347826 44.4565217,33.8043478 46.7934783,33.8043478 C52.0652174,33.8043478 56.3586957,29.5108696 56.3586957,24.2391304 C56.3586957,22.5543478 55.9782609,20.9782609 55.2173913,19.5652174 Z" fill="#6359F9"></path></g></svg>